G04 Layer_Physical_Order=1*
G04 Layer_Color=255*
%FSLAX44Y44*%
%MOMM*%
G71*
G01*
G75*
%ADD10R,1.3500X0.4000*%
%ADD11O,1.1000X0.6000*%
%ADD12R,0.4000X0.6000*%
%ADD13R,0.6000X0.4000*%
G04:AMPARAMS|DCode=14|XSize=0.4mm|YSize=0.6mm|CornerRadius=0mm|HoleSize=0mm|Usage=FLASHONLY|Rotation=45.000|XOffset=0mm|YOffset=0mm|HoleType=Round|Shape=Rectangle|*
%AMROTATEDRECTD14*
4,1,4,0.0707,-0.3535,-0.3535,0.0707,-0.0707,0.3535,0.3535,-0.0707,0.0707,-0.3535,0.0*
%
%ADD14ROTATEDRECTD14*%

%ADD15R,2.4500X2.4500*%
%ADD16O,0.9000X0.2500*%
%ADD17O,0.2500X0.9000*%
G04:AMPARAMS|DCode=18|XSize=0.4mm|YSize=0.6mm|CornerRadius=0mm|HoleSize=0mm|Usage=FLASHONLY|Rotation=330.000|XOffset=0mm|YOffset=0mm|HoleType=Round|Shape=Rectangle|*
%AMROTATEDRECTD18*
4,1,4,-0.3232,-0.1598,-0.0232,0.3598,0.3232,0.1598,0.0232,-0.3598,-0.3232,-0.1598,0.0*
%
%ADD18ROTATEDRECTD18*%

%ADD19C,0.2000*%
%ADD20C,0.2540*%
%ADD21C,0.4000*%
%ADD22R,2.0000X1.0000*%
%ADD23R,1.0000X2.0000*%
%ADD24C,0.0800*%
%ADD25O,0.9500X1.2500*%
%ADD26O,1.5500X1.0000*%
%ADD27C,0.9000*%
%ADD28C,1.0000*%
%ADD29C,0.5000*%
%ADD30C,0.4500*%
%ADD31C,0.1500*%
G36*
X81416Y85000D02*
X81552Y84317D01*
X81938Y83738D01*
X90038Y75638D01*
X90617Y75251D01*
X91300Y75116D01*
X274816D01*
Y41936D01*
X274709Y41836D01*
X265533Y34441D01*
X255853Y27720D01*
X245718Y21707D01*
X236626Y17156D01*
X235679Y17830D01*
X221567D01*
X221641Y17262D01*
X222351Y15550D01*
X223479Y14079D01*
X224426Y13353D01*
X224295Y11961D01*
X224275Y11917D01*
X213110Y8201D01*
X201692Y5286D01*
X190094Y3194D01*
X178377Y1934D01*
X166600Y1514D01*
X154823Y1934D01*
X143106Y3194D01*
X133104Y4998D01*
X132824Y6339D01*
X133865Y7035D01*
X135081Y8854D01*
X135508Y11000D01*
X135081Y13146D01*
X135019Y13238D01*
X135931Y14160D01*
X140130D01*
Y18700D01*
X142670D01*
Y14160D01*
X146940D01*
X147964Y13566D01*
X148092Y13481D01*
X148295Y11827D01*
X147874Y11359D01*
X145872D01*
X145868Y11361D01*
X144600Y11614D01*
X143332Y11361D01*
X142257Y10643D01*
X141539Y9568D01*
X141286Y8300D01*
X141539Y7032D01*
X142257Y5957D01*
X143332Y5239D01*
X144600Y4986D01*
X145868Y5239D01*
X145872Y5241D01*
X148978D01*
X150039Y4532D01*
X151600Y4222D01*
X156600D01*
X158161Y4532D01*
X159484Y5416D01*
X160368Y6739D01*
X160678Y8300D01*
X160368Y9861D01*
X159484Y11184D01*
X159133Y11418D01*
X159094Y11539D01*
X159220Y12888D01*
X160325Y13626D01*
X160831Y13288D01*
X161430Y13169D01*
Y17800D01*
X163970D01*
Y13169D01*
X164569Y13288D01*
X166153Y14347D01*
X167212Y15931D01*
X167301Y16377D01*
X167736Y16509D01*
X168939Y16532D01*
X169657Y15457D01*
X170732Y14739D01*
X172000Y14486D01*
X173268Y14739D01*
X173272Y14741D01*
X174978D01*
X176039Y14032D01*
X177600Y13722D01*
X182600D01*
X184161Y14032D01*
X185484Y14916D01*
X186368Y16239D01*
X186392Y16361D01*
X189600D01*
Y16000D01*
X196320D01*
X196846Y14730D01*
X192455Y10339D01*
X186048D01*
X185484Y11184D01*
X184161Y12068D01*
X182600Y12378D01*
X177600D01*
X176039Y12068D01*
X174716Y11184D01*
X173832Y9861D01*
X173522Y8300D01*
X173832Y6739D01*
X174716Y5416D01*
X176039Y4532D01*
X177600Y4222D01*
X182600D01*
X184161Y4532D01*
X185484Y5416D01*
X186048Y6261D01*
X193300D01*
X194080Y6416D01*
X194742Y6858D01*
X204018Y16134D01*
X205189Y15509D01*
X205041Y14764D01*
X205467Y12618D01*
X206683Y10799D01*
X208502Y9584D01*
X210648Y9157D01*
X212794Y9584D01*
X214614Y10799D01*
X215829Y12618D01*
X216256Y14764D01*
X215829Y16911D01*
X214614Y18730D01*
X212794Y19945D01*
X211565Y20190D01*
X211690Y21460D01*
X213830D01*
Y27000D01*
Y32540D01*
X210560D01*
Y32080D01*
X210100Y31000D01*
X209290Y31000D01*
X204100D01*
Y23000D01*
X204100D01*
X203920Y21804D01*
X198870Y16754D01*
X197600Y17280D01*
Y22000D01*
X189600D01*
Y20439D01*
X185647D01*
X185484Y20684D01*
X184161Y21568D01*
X182600Y21878D01*
X177600D01*
X176039Y21568D01*
X174978Y20859D01*
X173272D01*
X173268Y20861D01*
X173263Y20862D01*
X171059Y23067D01*
Y27700D01*
X171059Y27700D01*
X170826Y28871D01*
X170163Y29863D01*
X170163Y29863D01*
X162259Y37767D01*
Y68728D01*
X162261Y68732D01*
X162514Y70000D01*
X162261Y71268D01*
X161543Y72343D01*
X160468Y73061D01*
X159200Y73314D01*
X157932Y73061D01*
X156857Y72343D01*
X156139Y71268D01*
X155886Y70000D01*
X156139Y68732D01*
X156141Y68728D01*
Y36500D01*
X156141Y36500D01*
X156374Y35329D01*
X157037Y34337D01*
X160024Y31351D01*
X159214Y30364D01*
X158161Y31068D01*
X156600Y31378D01*
X151600D01*
X150039Y31068D01*
X148716Y30184D01*
X147832Y28861D01*
X147808Y28739D01*
X145400D01*
Y29700D01*
X139343D01*
X138857Y30873D01*
X143502Y35518D01*
X151500D01*
X152265Y35835D01*
X152582Y36600D01*
Y50423D01*
X152618Y50600D01*
X152582Y50777D01*
Y56600D01*
X152265Y57365D01*
X151500Y57682D01*
X141500D01*
X140735Y57365D01*
X140418Y56600D01*
Y50777D01*
X140382Y50600D01*
X140418Y50423D01*
Y38201D01*
X128458Y26242D01*
X128016Y25580D01*
X127861Y24800D01*
Y16202D01*
X127754Y16181D01*
X125935Y14965D01*
X124719Y13146D01*
X124292Y11000D01*
X124719Y8854D01*
X125141Y8222D01*
X124356Y7112D01*
X120090Y8201D01*
X119617Y8358D01*
X119513Y9125D01*
X119580Y9709D01*
X121265Y10835D01*
X122481Y12654D01*
X122908Y14800D01*
X122481Y16946D01*
X121265Y18765D01*
X119446Y19981D01*
X119339Y20002D01*
Y21655D01*
X122542Y24858D01*
X122542Y24858D01*
X122984Y25520D01*
X123139Y26300D01*
Y35518D01*
X126100D01*
X126865Y35835D01*
X127182Y36600D01*
Y50423D01*
X127218Y50600D01*
X127182Y50777D01*
Y56600D01*
X126865Y57365D01*
X126100Y57682D01*
X116100D01*
X115335Y57365D01*
X115018Y56600D01*
Y50777D01*
X114982Y50600D01*
X115018Y50423D01*
Y36600D01*
X115058Y36501D01*
X114858Y35313D01*
X114542Y34968D01*
X113757Y34443D01*
X113039Y33368D01*
X112786Y32100D01*
X112858Y31741D01*
X111208Y30092D01*
X109821Y31478D01*
X105579Y27236D01*
X111236Y21579D01*
X115478Y25821D01*
X114092Y27208D01*
X115742Y28858D01*
X116100Y28786D01*
X117368Y29039D01*
X117791Y29321D01*
X119061Y28642D01*
Y27145D01*
X115858Y23942D01*
X115416Y23280D01*
X115261Y22500D01*
Y20002D01*
X115154Y19981D01*
X113335Y18765D01*
X112119Y16946D01*
X111692Y14800D01*
X112119Y12654D01*
X112516Y12060D01*
X111702Y10992D01*
X108908Y11922D01*
X98021Y16432D01*
X87483Y21707D01*
X77347Y27720D01*
X67947Y34248D01*
X68240Y35518D01*
X72998D01*
X79158Y29358D01*
X79289Y29271D01*
X79038Y28836D01*
X84234Y25836D01*
X87494Y31482D01*
X88724Y31588D01*
X89341Y30681D01*
X85966Y24836D01*
X91162Y21836D01*
X95162Y28764D01*
X94934Y28896D01*
X94816Y29276D01*
X94717Y30417D01*
X95261Y31232D01*
X95513Y32499D01*
X95569Y32529D01*
X96607Y33070D01*
X97461Y32388D01*
Y26243D01*
X97616Y25463D01*
X98058Y24801D01*
X100601Y22258D01*
X99922Y21579D01*
X105579Y15922D01*
X109821Y20164D01*
X104164Y25821D01*
X103485Y25142D01*
X101539Y27088D01*
Y33300D01*
X101384Y34080D01*
X101203Y34351D01*
X101425Y35750D01*
X101465Y35835D01*
X101782Y36600D01*
Y50423D01*
X101818Y50600D01*
X101782Y50777D01*
Y56600D01*
X101465Y57365D01*
X100700Y57682D01*
X90700D01*
X89935Y57365D01*
X89618Y56600D01*
Y50777D01*
X89582Y50600D01*
X89618Y50423D01*
Y38326D01*
X88444Y37840D01*
X84539Y41745D01*
Y59464D01*
X84539Y59464D01*
X84384Y60245D01*
X83942Y60906D01*
X78206Y66642D01*
X77545Y67084D01*
X76764Y67239D01*
X53245D01*
X46439Y74045D01*
Y114055D01*
X49145Y116761D01*
X50518D01*
Y113800D01*
X50762Y113210D01*
X50835Y113035D01*
Y111865D01*
X50762Y111690D01*
X50518Y111100D01*
Y101100D01*
X50835Y100335D01*
X51600Y100018D01*
X59752D01*
X60180Y98890D01*
X60199Y98748D01*
X59014Y97203D01*
X58254Y95368D01*
X58162Y94670D01*
X73038D01*
X72946Y95368D01*
X72186Y97203D01*
X71001Y98748D01*
X71020Y98890D01*
X71448Y100018D01*
X71600D01*
X72365Y100335D01*
X72682Y101100D01*
Y111100D01*
X72438Y111690D01*
X72365Y111865D01*
Y113035D01*
X72438Y113210D01*
X72682Y113800D01*
Y123800D01*
X72365Y124565D01*
X71600Y124882D01*
X71448D01*
X71020Y126010D01*
X71001Y126152D01*
X72186Y127697D01*
X72946Y129532D01*
X73038Y130230D01*
X58162D01*
X58254Y129532D01*
X59014Y127697D01*
X60199Y126152D01*
X60180Y126010D01*
X59752Y124882D01*
X51600D01*
X50835Y124565D01*
X50518Y123800D01*
Y120839D01*
X48300D01*
X47520Y120684D01*
X46858Y120242D01*
X42958Y116342D01*
X42516Y115680D01*
X42361Y114900D01*
Y73200D01*
X42516Y72420D01*
X42958Y71758D01*
X50958Y63758D01*
X50958Y63758D01*
X51620Y63316D01*
X52400Y63161D01*
X52400Y63161D01*
X75920D01*
X80461Y58620D01*
Y40900D01*
X80616Y40120D01*
X81058Y39458D01*
X83782Y36734D01*
X83038Y35764D01*
X83038Y35764D01*
X81906Y33803D01*
X80646Y33637D01*
X76382Y37901D01*
Y50423D01*
X76417Y50600D01*
X76382Y50777D01*
Y56600D01*
X76065Y57365D01*
X75300Y57682D01*
X65300D01*
X64535Y57365D01*
X64218Y56600D01*
Y50777D01*
X64182Y50600D01*
X64218Y50423D01*
Y38693D01*
X63072Y38145D01*
X58491Y41836D01*
X49866Y49866D01*
X41836Y58491D01*
X34441Y67667D01*
X27720Y77347D01*
X21707Y87483D01*
X16432Y98021D01*
X11922Y108908D01*
X8201Y120090D01*
X7217Y123945D01*
X8322Y124748D01*
X9732Y124164D01*
X11700Y123905D01*
X13180D01*
Y131510D01*
Y139115D01*
X11700D01*
X9732Y138856D01*
X7897Y138096D01*
X6322Y136888D01*
X5743Y136132D01*
X4393Y136459D01*
X3194Y143106D01*
X1934Y154823D01*
X1514Y166600D01*
X1934Y178377D01*
X3194Y190094D01*
X4367Y196595D01*
X5716Y196922D01*
X6322Y196132D01*
X7897Y194924D01*
X9732Y194164D01*
X11700Y193905D01*
X13180D01*
Y201510D01*
X14450D01*
Y202780D01*
X24638D01*
X24546Y203478D01*
X23786Y205312D01*
X22578Y206888D01*
X21003Y208096D01*
X20110Y208466D01*
X19973Y208818D01*
X19972Y209898D01*
X21121Y210779D01*
X22249Y212250D01*
X22959Y213962D01*
X23033Y214530D01*
X16100D01*
Y215800D01*
X14830D01*
Y222733D01*
X14262Y222659D01*
X12550Y221949D01*
X12458Y221879D01*
X11376Y222649D01*
X11922Y224292D01*
X16432Y235179D01*
X16579Y235473D01*
X17960Y235394D01*
X18935Y233935D01*
X20754Y232719D01*
X22900Y232292D01*
X23855Y232482D01*
X24214Y232185D01*
X24780Y231371D01*
X24586Y230400D01*
X24839Y229132D01*
X25557Y228057D01*
X26632Y227339D01*
X27541Y227158D01*
X28084Y226649D01*
X28404Y225892D01*
X28306Y225400D01*
X28481Y224522D01*
X28978Y223778D01*
X29722Y223281D01*
X30600Y223106D01*
X36651D01*
X37368Y222668D01*
X37806Y221952D01*
Y215900D01*
X37981Y215022D01*
X38478Y214278D01*
X39222Y213781D01*
X40100Y213606D01*
X40978Y213781D01*
X41656Y214233D01*
X42368Y213168D01*
X43621Y212330D01*
X43830Y212288D01*
Y219150D01*
X46370D01*
Y212288D01*
X46579Y212330D01*
X47832Y213168D01*
X48545Y214233D01*
X49222Y213781D01*
X50100Y213606D01*
X50978Y213781D01*
X51722Y214278D01*
X51884Y214520D01*
X53316D01*
X53478Y214278D01*
X54222Y213781D01*
X55100Y213606D01*
X55978Y213781D01*
X56515Y214140D01*
X57291Y213906D01*
X57786Y213583D01*
Y207414D01*
X56468D01*
X55365Y209065D01*
X53546Y210281D01*
X51400Y210708D01*
X49254Y210281D01*
X47435Y209065D01*
X46219Y207246D01*
X45792Y205100D01*
X46219Y202954D01*
X47435Y201135D01*
X49254Y199919D01*
X51400Y199492D01*
X53546Y199919D01*
X55365Y201135D01*
X56468Y202785D01*
X60100D01*
X60986Y202962D01*
X61737Y203463D01*
X62238Y204214D01*
X62414Y205100D01*
Y213583D01*
X62909Y213906D01*
X63685Y214140D01*
X64222Y213781D01*
X65100Y213606D01*
X65978Y213781D01*
X66722Y214278D01*
X67219Y215022D01*
X67394Y215900D01*
Y221952D01*
X67832Y222668D01*
X68548Y223106D01*
X74600D01*
X75478Y223281D01*
X76222Y223778D01*
X76719Y224522D01*
X76894Y225400D01*
X76719Y226278D01*
X76267Y226956D01*
X77332Y227668D01*
X78170Y228921D01*
X78212Y229130D01*
X71350D01*
Y231670D01*
X78212D01*
X78170Y231879D01*
X77332Y233132D01*
X76267Y233845D01*
X76719Y234522D01*
X76894Y235400D01*
X76719Y236278D01*
X76222Y237022D01*
X75980Y237184D01*
Y238616D01*
X76222Y238778D01*
X76719Y239522D01*
X76894Y240400D01*
X76719Y241278D01*
X77068Y242339D01*
X78143Y243057D01*
X78861Y244132D01*
X79114Y245400D01*
X78861Y246668D01*
X78143Y247743D01*
X77068Y248461D01*
X76719Y249522D01*
X76894Y250400D01*
X76719Y251278D01*
X76222Y252022D01*
X75478Y252519D01*
X74600Y252694D01*
X68548D01*
X67832Y253132D01*
X67394Y253848D01*
Y259900D01*
X67219Y260778D01*
X66722Y261522D01*
X65978Y262019D01*
X65100Y262194D01*
X64222Y262019D01*
X63685Y261660D01*
X62909Y261894D01*
X62414Y262217D01*
Y270700D01*
X62238Y271586D01*
X61737Y272337D01*
X60986Y272838D01*
X60100Y273015D01*
X56468D01*
X55365Y274665D01*
X53546Y275881D01*
X51400Y276308D01*
X49254Y275881D01*
X47435Y274665D01*
X46219Y272846D01*
X45792Y270700D01*
X46219Y268554D01*
X47435Y266735D01*
X49254Y265519D01*
X51400Y265092D01*
X51992Y265210D01*
X52309Y264809D01*
X52621Y264040D01*
X52039Y263168D01*
X51981Y262877D01*
X50990Y262030D01*
X50628Y262089D01*
X50100Y262194D01*
X49222Y262019D01*
X48545Y261567D01*
X47832Y262632D01*
X46579Y263470D01*
X46370Y263512D01*
Y256650D01*
X43830D01*
Y263512D01*
X43621Y263470D01*
X42368Y262632D01*
X41656Y261567D01*
X40978Y262019D01*
X40100Y262194D01*
X39222Y262019D01*
X38478Y261522D01*
X37981Y260778D01*
X37806Y259900D01*
Y253848D01*
X37368Y253132D01*
X36651Y252694D01*
X30600D01*
X29722Y252519D01*
X28978Y252022D01*
X28481Y251278D01*
X28306Y250400D01*
X28481Y249522D01*
X28978Y248778D01*
X29220Y248616D01*
Y247184D01*
X28978Y247022D01*
X28481Y246278D01*
X28306Y245400D01*
X28481Y244522D01*
X28978Y243778D01*
X29220Y243616D01*
Y242184D01*
X28978Y242022D01*
X28633Y241506D01*
X27703Y241328D01*
X27202Y241361D01*
X26865Y241865D01*
X25046Y243081D01*
X22900Y243508D01*
X21924Y243314D01*
X21067Y244438D01*
X21707Y245718D01*
X27720Y255853D01*
X34441Y265533D01*
X41836Y274709D01*
X49866Y283334D01*
X56828Y289816D01*
X81416D01*
Y85000D01*
D02*
G37*
%LPC*%
G36*
X73038Y92130D02*
X58162D01*
X58254Y91432D01*
X59014Y89598D01*
X60199Y88052D01*
X60180Y87910D01*
X59752Y86782D01*
X51600D01*
X50835Y86465D01*
X50518Y85700D01*
Y75700D01*
X50835Y74935D01*
X51600Y74618D01*
X65423D01*
X65600Y74583D01*
X65777Y74618D01*
X71600D01*
X72365Y74935D01*
X72682Y75700D01*
Y85700D01*
X72365Y86465D01*
X71600Y86782D01*
X71448D01*
X71020Y87910D01*
X71001Y88052D01*
X72186Y89598D01*
X72946Y91432D01*
X73038Y92130D01*
D02*
G37*
G36*
X183330Y58038D02*
X182632Y57946D01*
X180798Y57186D01*
X179252Y56001D01*
X179110Y56020D01*
X177982Y56448D01*
Y56600D01*
X177665Y57365D01*
X176900Y57682D01*
X166900D01*
X166135Y57365D01*
X165818Y56600D01*
Y50777D01*
X165782Y50600D01*
X165818Y50423D01*
Y36600D01*
X166135Y35835D01*
X166900Y35518D01*
X176900D01*
X177665Y35835D01*
X177982Y36600D01*
Y44752D01*
X179110Y45180D01*
X179252Y45199D01*
X180798Y44014D01*
X182632Y43254D01*
X183330Y43162D01*
Y50600D01*
Y58038D01*
D02*
G37*
G36*
X64330Y138938D02*
X63632Y138846D01*
X61797Y138086D01*
X60222Y136878D01*
X59014Y135302D01*
X58254Y133468D01*
X58162Y132770D01*
X64330D01*
Y138938D01*
D02*
G37*
G36*
X24638Y130240D02*
X15720D01*
Y123905D01*
X17200D01*
X19168Y124164D01*
X21003Y124924D01*
X22578Y126132D01*
X23786Y127708D01*
X24546Y129542D01*
X24638Y130240D01*
D02*
G37*
G36*
X185870Y58038D02*
Y50600D01*
Y43162D01*
X186568Y43254D01*
X188403Y44014D01*
X189948Y45199D01*
X190090Y45180D01*
X191218Y44752D01*
Y36600D01*
X191535Y35835D01*
X191899Y35684D01*
X191922Y35625D01*
X192007Y34344D01*
X191257Y33843D01*
X190539Y32768D01*
X190286Y31500D01*
X190332Y31270D01*
X189600Y30000D01*
X189600D01*
X188604Y29339D01*
X186048D01*
X185484Y30184D01*
X184161Y31068D01*
X182600Y31378D01*
X177600D01*
X176039Y31068D01*
X174716Y30184D01*
X173832Y28861D01*
X173522Y27300D01*
X173832Y25739D01*
X174716Y24416D01*
X176039Y23532D01*
X177600Y23222D01*
X182600D01*
X184161Y23532D01*
X185484Y24416D01*
X186048Y25261D01*
X189600D01*
Y24000D01*
X197600D01*
Y30000D01*
X197600D01*
X196868Y31270D01*
X196914Y31500D01*
X196661Y32768D01*
X195943Y33843D01*
X195338Y34248D01*
X195723Y35518D01*
X202300D01*
X202890Y35762D01*
X203065Y35835D01*
X204235D01*
X204410Y35762D01*
X205000Y35518D01*
X215000D01*
X215765Y35835D01*
X216082Y36600D01*
Y50423D01*
X216117Y50600D01*
X216082Y50777D01*
Y56600D01*
X215765Y57365D01*
X215000Y57682D01*
X205000D01*
X204410Y57438D01*
X204235Y57365D01*
X203065D01*
X202890Y57438D01*
X202300Y57682D01*
X192300D01*
X191535Y57365D01*
X191218Y56600D01*
Y56448D01*
X190090Y56020D01*
X189948Y56001D01*
X188403Y57186D01*
X186568Y57946D01*
X185870Y58038D01*
D02*
G37*
G36*
X229770Y26034D02*
Y20370D01*
X235434D01*
X235359Y20938D01*
X234649Y22650D01*
X233521Y24121D01*
X232050Y25249D01*
X230338Y25959D01*
X229770Y26034D01*
D02*
G37*
G36*
X227230D02*
X226662Y25959D01*
X224950Y25249D01*
X223479Y24121D01*
X222351Y22650D01*
X221641Y20938D01*
X221567Y20370D01*
X227230D01*
Y26034D01*
D02*
G37*
G36*
X219640Y32540D02*
X216370D01*
Y28270D01*
X219640D01*
Y32540D01*
D02*
G37*
G36*
Y25730D02*
X216370D01*
Y21460D01*
X219640D01*
Y25730D01*
D02*
G37*
G36*
X66870Y138938D02*
Y132770D01*
X73038D01*
X72946Y133468D01*
X72186Y135302D01*
X70978Y136878D01*
X69402Y138086D01*
X67568Y138846D01*
X66870Y138938D01*
D02*
G37*
G36*
X42720Y200196D02*
Y192780D01*
X48803D01*
Y193010D01*
X48552Y194913D01*
X47818Y196686D01*
X46649Y198209D01*
X45127Y199378D01*
X43353Y200112D01*
X42720Y200196D01*
D02*
G37*
G36*
X40180D02*
X39547Y200112D01*
X37774Y199378D01*
X36251Y198209D01*
X35082Y196686D01*
X34348Y194913D01*
X34097Y193010D01*
Y192780D01*
X40180D01*
Y200196D01*
D02*
G37*
G36*
X17370Y222733D02*
Y217070D01*
X23033D01*
X22959Y217638D01*
X22249Y219350D01*
X21121Y220821D01*
X19650Y221949D01*
X17938Y222659D01*
X17370Y222733D01*
D02*
G37*
G36*
X24638Y200240D02*
X15720D01*
Y193905D01*
X17200D01*
X19168Y194164D01*
X21003Y194924D01*
X22578Y196132D01*
X23786Y197708D01*
X24546Y199542D01*
X24638Y200240D01*
D02*
G37*
G36*
X48803Y190240D02*
X41450D01*
X34097D01*
Y190010D01*
X34348Y188107D01*
X35082Y186334D01*
X36251Y184811D01*
X37517Y183839D01*
X37284Y182745D01*
X37188Y182569D01*
X31410D01*
X30240Y182336D01*
X29247Y181673D01*
X25037Y177463D01*
X24374Y176471D01*
X24141Y175300D01*
X24141Y175300D01*
Y171072D01*
X24139Y171068D01*
X23886Y169800D01*
X24139Y168532D01*
X24857Y167457D01*
X25932Y166739D01*
X27200Y166486D01*
X28468Y166739D01*
X29543Y167457D01*
X30261Y168532D01*
X30514Y169800D01*
X30261Y171068D01*
X30259Y171072D01*
Y174033D01*
X32567Y176342D01*
X33700Y175855D01*
X33700Y175181D01*
Y170010D01*
X33700D01*
Y169510D01*
X33700D01*
Y164280D01*
X33700Y163510D01*
X33700Y162240D01*
Y158050D01*
X32160D01*
Y154780D01*
X41450D01*
X50740D01*
Y158050D01*
X49200D01*
X49200Y162595D01*
X50170Y163461D01*
X50388Y163450D01*
X50443Y163444D01*
X51690Y163196D01*
X52958Y163449D01*
X54033Y164167D01*
X54751Y165242D01*
X55004Y166510D01*
X54751Y167778D01*
X54033Y168853D01*
X53829Y168990D01*
Y170517D01*
X54053Y170667D01*
X54771Y171742D01*
X55024Y173010D01*
X54771Y174278D01*
X54053Y175353D01*
X52978Y176071D01*
X51710Y176324D01*
X50444Y176072D01*
X50442Y176071D01*
X50176Y176058D01*
X49200Y176936D01*
X49200Y177280D01*
Y182510D01*
X45654D01*
X45374Y183111D01*
X45306Y183780D01*
X46649Y184811D01*
X47818Y186334D01*
X48552Y188107D01*
X48803Y190010D01*
Y190240D01*
D02*
G37*
G36*
X40180Y140240D02*
X34097D01*
Y140010D01*
X34348Y138107D01*
X35082Y136334D01*
X36251Y134811D01*
X37774Y133642D01*
X39547Y132908D01*
X40180Y132824D01*
Y140240D01*
D02*
G37*
G36*
X17200Y139115D02*
X15720D01*
Y132780D01*
X24638D01*
X24546Y133478D01*
X23786Y135312D01*
X22578Y136888D01*
X21003Y138096D01*
X19168Y138856D01*
X17200Y139115D01*
D02*
G37*
G36*
X50740Y152240D02*
X41450D01*
X32160D01*
Y148970D01*
X35234D01*
X35860Y147700D01*
X35082Y146686D01*
X34348Y144913D01*
X34097Y143010D01*
Y142780D01*
X41450D01*
X48803D01*
Y143010D01*
X48552Y144913D01*
X47818Y146686D01*
X47040Y147700D01*
X47666Y148970D01*
X50740D01*
Y152240D01*
D02*
G37*
G36*
X48803Y140240D02*
X42720D01*
Y132824D01*
X43353Y132908D01*
X45127Y133642D01*
X46649Y134811D01*
X47818Y136334D01*
X48552Y138107D01*
X48803Y140010D01*
Y140240D01*
D02*
G37*
%LPD*%
D10*
X41450Y179510D02*
D03*
Y173010D02*
D03*
Y166510D02*
D03*
Y160010D02*
D03*
Y153510D02*
D03*
D11*
X154100Y27300D02*
D03*
Y17800D02*
D03*
Y8300D02*
D03*
X180100Y27300D02*
D03*
Y17800D02*
D03*
Y8300D02*
D03*
D12*
X207100Y27000D02*
D03*
X215100D02*
D03*
D13*
X141400Y26700D02*
D03*
Y18700D02*
D03*
X193600Y27000D02*
D03*
Y19000D02*
D03*
D14*
X110528Y26528D02*
D03*
X104872Y20872D02*
D03*
D15*
X52600Y237900D02*
D03*
D16*
X71350Y250400D02*
D03*
Y245400D02*
D03*
Y240400D02*
D03*
Y235400D02*
D03*
Y230400D02*
D03*
Y225400D02*
D03*
X33850D02*
D03*
Y230400D02*
D03*
Y235400D02*
D03*
Y240400D02*
D03*
Y245400D02*
D03*
Y250400D02*
D03*
D17*
X65100Y219150D02*
D03*
X60100D02*
D03*
X55100D02*
D03*
X50100D02*
D03*
X45100D02*
D03*
X40100D02*
D03*
Y256650D02*
D03*
X45100D02*
D03*
X50100D02*
D03*
X55100D02*
D03*
X60100D02*
D03*
X65100D02*
D03*
D18*
X90564Y26800D02*
D03*
X83636Y30800D02*
D03*
D19*
X54918Y235582D02*
X56236Y236900D01*
X180100Y27300D02*
X193300D01*
X180100Y17800D02*
X180700Y18400D01*
X193000D01*
X193600Y19000D01*
X180100Y8300D02*
X193300D01*
X207100Y22100D01*
Y27000D01*
X141400Y26700D02*
X153500D01*
X154100Y27300D01*
X141400Y18700D02*
X153200D01*
X154100Y17800D01*
X129900Y11000D02*
Y24800D01*
X146500Y41400D01*
Y50600D01*
X121100Y26300D02*
Y50600D01*
X117300Y22500D02*
X121100Y26300D01*
X117300Y14800D02*
Y22500D01*
X70300Y41100D02*
Y50600D01*
Y41100D02*
X80600Y30800D01*
X83636D01*
X99500Y26243D02*
X104872Y20872D01*
X95700Y37100D02*
Y50600D01*
Y37100D02*
X99500Y33300D01*
Y26243D02*
Y33300D01*
X90564Y26800D02*
X92200Y28436D01*
Y32500D01*
X110528Y26528D02*
X116100Y32100D01*
X215100Y27000D02*
X220600D01*
X228500Y19100D01*
X55100Y256650D02*
Y261900D01*
X33850Y245400D02*
X33950Y245500D01*
X36800D01*
X27900Y230400D02*
X33850D01*
X193600Y27000D02*
Y31500D01*
X45100Y247900D02*
Y256650D01*
Y247900D02*
X48964D01*
X51600Y245264D01*
X50282Y240218D02*
X51600D01*
Y245264D01*
X62464Y230400D02*
X71350D01*
X62464D02*
X62600Y230536D01*
Y236900D01*
X56236D02*
X62600D01*
X54918Y235582D02*
X54918D01*
X45100Y219150D02*
Y227900D01*
X48964D01*
X51600Y230536D01*
X50282Y235582D02*
X51600D01*
Y230536D02*
Y235582D01*
X90900Y32500D02*
X92200D01*
X44400Y73200D02*
Y114900D01*
X48300Y118800D01*
X65600D01*
X82500Y40900D02*
X90900Y32500D01*
X82500Y40900D02*
Y59464D01*
X44400Y73200D02*
X52400Y65200D01*
X76764D01*
X82500Y59464D01*
X41450Y166510D02*
X51690D01*
X41450Y173010D02*
X51710D01*
D20*
X60100Y256650D02*
Y270700D01*
X49400D02*
X51400D01*
X60100D01*
X51400Y205100D02*
X60100D01*
Y219150D01*
X71350Y245400D02*
X75800D01*
D21*
X144600Y8300D02*
X154100D01*
X172000Y17800D02*
X180100D01*
X154100D02*
X162700D01*
X27200Y169800D02*
Y175300D01*
X31410Y179510D01*
X41450D01*
X168000Y21800D02*
X172000Y17800D01*
X168000Y21800D02*
Y27700D01*
X159200Y36500D02*
X168000Y27700D01*
X159200Y36500D02*
Y70000D01*
D22*
X61600Y131500D02*
D03*
Y118800D02*
D03*
Y106100D02*
D03*
Y93400D02*
D03*
Y80700D02*
D03*
D23*
X70300Y46600D02*
D03*
X95700D02*
D03*
X121100D02*
D03*
X146500D02*
D03*
X171900D02*
D03*
X184600D02*
D03*
X197300D02*
D03*
X210000D02*
D03*
D24*
X56600Y291600D02*
G03*
X276600Y41600I110000J-125000D01*
G01*
D25*
X41450Y191510D02*
D03*
Y141510D02*
D03*
D26*
X14450Y201510D02*
D03*
Y131510D02*
D03*
D27*
X210648Y14764D02*
D03*
X228500Y19100D02*
D03*
X117300Y14800D02*
D03*
X129900Y11000D02*
D03*
X16100Y215800D02*
D03*
X22900Y237900D02*
D03*
X51400Y270700D02*
D03*
Y205100D02*
D03*
D28*
X210000Y50600D02*
D03*
X197300D02*
D03*
X184600D02*
D03*
X171900D02*
D03*
X146500D02*
D03*
X121100D02*
D03*
X95700D02*
D03*
X70300D02*
D03*
X65600Y80700D02*
D03*
Y93400D02*
D03*
Y106100D02*
D03*
Y118800D02*
D03*
Y131500D02*
D03*
D29*
X47100Y232400D02*
D03*
Y243400D02*
D03*
X58100Y232400D02*
D03*
Y243400D02*
D03*
D30*
X75800Y245400D02*
D03*
X144600Y8300D02*
D03*
X172000Y17800D02*
D03*
X92200Y32500D02*
D03*
X116100Y32100D02*
D03*
X162700Y17800D02*
D03*
X55100Y261900D02*
D03*
X36800Y245500D02*
D03*
X27200Y169800D02*
D03*
X27900Y230400D02*
D03*
X193600Y31500D02*
D03*
X159200Y70000D02*
D03*
X51690Y166510D02*
D03*
X51710Y173010D02*
D03*
D31*
X83200Y85000D02*
X91300Y76900D01*
X276600Y41600D02*
Y76900D01*
X83200Y85000D02*
Y291600D01*
X56600D02*
X83200D01*
X91300Y76900D02*
X276600D01*
M02*
