M48
;Layer_Color=9474304
;FILE_FORMAT=2:5
INCH,LZ
;TYPE=PLATED
T1F00S00C0.00787
T4F00S00C0.02362
%
T01
X0036299Y0012795
X0045709Y0012638
X0056929Y0003268
X0064055Y0007008
X0067716
X0076221Y0012402
X0062677Y0027559
X002035Y0065555
X0020358Y0068114
X0010709Y006685
X0010984Y0090709
X0018543Y0091496
Y0095827
X0022874
Y0091496
X0029842Y0096614
X0021693Y010311
X0014488Y0096653
T04
X0027677Y0019921
X0037677
X0047677
X0046181Y0005827
X0051142Y0004331
X0025827Y0031772
Y0036772
Y0041772
Y0046772
Y0051772
X0057677Y0019921
X0067677
X0072677
X0077677
X0082677
X0082932Y0005813
X0089961Y000752
X0020236Y0080748
X0006339Y0084961
X0009016Y0093661
X0020236Y0106575
M30
