G04 Layer_Color=8388736*
%FSLAX44Y44*%
%MOMM*%
G71*
G01*
G75*
%ADD34R,1.5532X0.6032*%
%ADD35O,1.3032X0.8032*%
%ADD36R,0.6032X0.8032*%
%ADD37R,0.8032X0.6032*%
G04:AMPARAMS|DCode=38|XSize=0.6032mm|YSize=0.8032mm|CornerRadius=0mm|HoleSize=0mm|Usage=FLASHONLY|Rotation=45.000|XOffset=0mm|YOffset=0mm|HoleType=Round|Shape=Rectangle|*
%AMROTATEDRECTD38*
4,1,4,0.0707,-0.4972,-0.4972,0.0707,-0.0707,0.4972,0.4972,-0.0707,0.0707,-0.4972,0.0*
%
%ADD38ROTATEDRECTD38*%

%ADD39R,2.6532X2.6532*%
%ADD40O,1.1032X0.4532*%
%ADD41O,0.4532X1.1032*%
G04:AMPARAMS|DCode=42|XSize=0.6032mm|YSize=0.8032mm|CornerRadius=0mm|HoleSize=0mm|Usage=FLASHONLY|Rotation=330.000|XOffset=0mm|YOffset=0mm|HoleType=Round|Shape=Rectangle|*
%AMROTATEDRECTD42*
4,1,4,-0.4620,-0.1970,-0.0604,0.4986,0.4620,0.1970,0.0604,-0.4986,-0.4620,-0.1970,0.0*
%
%ADD42ROTATEDRECTD42*%

%ADD43R,2.2032X1.2032*%
%ADD44R,1.2032X2.2032*%
%ADD45O,1.1532X1.4532*%
%ADD46O,1.7532X1.2032*%
%ADD47C,1.1032*%
%ADD48C,1.2032*%
%ADD49C,0.7032*%
D34*
X41450Y179510D02*
D03*
Y173010D02*
D03*
Y166510D02*
D03*
Y160010D02*
D03*
Y153510D02*
D03*
D35*
X154100Y27300D02*
D03*
Y17800D02*
D03*
Y8300D02*
D03*
X180100Y27300D02*
D03*
Y17800D02*
D03*
Y8300D02*
D03*
D36*
X207100Y27000D02*
D03*
X215100D02*
D03*
D37*
X141400Y26700D02*
D03*
Y18700D02*
D03*
X193600Y27000D02*
D03*
Y19000D02*
D03*
D38*
X110528Y26528D02*
D03*
X104872Y20872D02*
D03*
D39*
X52600Y237900D02*
D03*
D40*
X71350Y250400D02*
D03*
Y245400D02*
D03*
Y240400D02*
D03*
Y235400D02*
D03*
Y230400D02*
D03*
Y225400D02*
D03*
X33850D02*
D03*
Y230400D02*
D03*
Y235400D02*
D03*
Y240400D02*
D03*
Y245400D02*
D03*
Y250400D02*
D03*
D41*
X65100Y219150D02*
D03*
X60100D02*
D03*
X55100D02*
D03*
X50100D02*
D03*
X45100D02*
D03*
X40100D02*
D03*
Y256650D02*
D03*
X45100D02*
D03*
X50100D02*
D03*
X55100D02*
D03*
X60100D02*
D03*
X65100D02*
D03*
D42*
X90564Y26800D02*
D03*
X83636Y30800D02*
D03*
D43*
X61600Y131500D02*
D03*
Y118800D02*
D03*
Y106100D02*
D03*
Y93400D02*
D03*
Y80700D02*
D03*
D44*
X70300Y46600D02*
D03*
X95700D02*
D03*
X121100D02*
D03*
X146500D02*
D03*
X171900D02*
D03*
X184600D02*
D03*
X197300D02*
D03*
X210000D02*
D03*
D45*
X41450Y191510D02*
D03*
Y141510D02*
D03*
D46*
X14450Y201510D02*
D03*
Y131510D02*
D03*
D47*
X210648Y14764D02*
D03*
X228500Y19100D02*
D03*
X117300Y14800D02*
D03*
X129900Y11000D02*
D03*
X16100Y215800D02*
D03*
X22900Y237900D02*
D03*
X51400Y270700D02*
D03*
Y205100D02*
D03*
D48*
X210000Y50600D02*
D03*
X197300D02*
D03*
X184600D02*
D03*
X171900D02*
D03*
X146500D02*
D03*
X121100D02*
D03*
X95700D02*
D03*
X70300D02*
D03*
X65600Y80700D02*
D03*
Y93400D02*
D03*
Y106100D02*
D03*
Y118800D02*
D03*
Y131500D02*
D03*
D49*
X47100Y232400D02*
D03*
Y243400D02*
D03*
X58100Y232400D02*
D03*
Y243400D02*
D03*
M02*
