M48
;Layer_Color=9474304
;FILE_FORMAT=4:4
METRIC,LZ
;TYPE=PLATED
T1F00S00C0.2000
T4F00S00C0.6000
%
T01
X000922Y000325
X001161Y000321
X001446Y000083
X001627Y000178
X00172
X001936Y000315
X001592Y0007
X0005169Y0016651
X0005171Y0017301
X000272Y001698
X000279Y002304
X000471Y002324
X000581
Y002434
X000471
X000368Y002455
X000551Y002619
X000758Y002454
T04
X000703Y000506
X000957
X001211
X001173Y000148
X001299Y00011
X000656Y000807
Y000934
Y001061
Y001188
Y001315
X001465Y000506
X001719
X001846
X001973
X0021
X00210648Y00014764
X002285Y000191
X000514Y002051
X000161Y002158
X000229Y002379
X000514Y002707
M30
