G04*
G04 #@! TF.GenerationSoftware,Altium Limited,Altium Designer,18.1.1 (9)*
G04*
G04 Layer_Color=8388736*
%FSLAX44Y44*%
%MOMM*%
G71*
G01*
G75*
G04:AMPARAMS|DCode=15|XSize=0.6032mm|YSize=0.8032mm|CornerRadius=0mm|HoleSize=0mm|Usage=FLASHONLY|Rotation=330.000|XOffset=0mm|YOffset=0mm|HoleType=Round|Shape=Rectangle|*
%AMROTATEDRECTD15*
4,1,4,-0.4620,-0.1970,-0.0604,0.4986,0.4620,0.1970,0.0604,-0.4986,-0.4620,-0.1970,0.0*
%
%ADD15ROTATEDRECTD15*%

%ADD16O,0.4532X1.1032*%
%ADD17O,1.1032X0.4532*%
%ADD18R,2.6532X2.6532*%
G04:AMPARAMS|DCode=19|XSize=0.6032mm|YSize=0.8032mm|CornerRadius=0mm|HoleSize=0mm|Usage=FLASHONLY|Rotation=45.000|XOffset=0mm|YOffset=0mm|HoleType=Round|Shape=Rectangle|*
%AMROTATEDRECTD19*
4,1,4,0.0707,-0.4972,-0.4972,0.0707,-0.0707,0.4972,0.4972,-0.0707,0.0707,-0.4972,0.0*
%
%ADD19ROTATEDRECTD19*%

%ADD20R,0.8032X0.6032*%
%ADD21R,0.6032X0.8032*%
%ADD22O,1.3032X0.8032*%
%ADD23R,1.5532X0.6032*%
%ADD24R,1.2032X2.2032*%
%ADD25R,2.2032X1.2032*%
%ADD26C,1.2032*%
%ADD27C,1.1032*%
%ADD28O,1.7532X1.2032*%
%ADD29O,1.1532X1.4532*%
%ADD30C,0.7032*%
D15*
X83636Y30800D02*
D03*
X90564Y26800D02*
D03*
D16*
X65100Y256650D02*
D03*
X60100D02*
D03*
X55100D02*
D03*
X50100D02*
D03*
X45100D02*
D03*
X40100D02*
D03*
Y219150D02*
D03*
X45100D02*
D03*
X50100D02*
D03*
X55100D02*
D03*
X60100D02*
D03*
X65100D02*
D03*
D17*
X33850Y250400D02*
D03*
Y245400D02*
D03*
Y240400D02*
D03*
Y235400D02*
D03*
Y230400D02*
D03*
Y225400D02*
D03*
X71350D02*
D03*
Y230400D02*
D03*
Y235400D02*
D03*
Y240400D02*
D03*
Y245400D02*
D03*
Y250400D02*
D03*
D18*
X52600Y237900D02*
D03*
D19*
X104872Y20872D02*
D03*
X110528Y26528D02*
D03*
D20*
X193600Y19000D02*
D03*
Y27000D02*
D03*
X141400Y18700D02*
D03*
Y26700D02*
D03*
D21*
X215100Y27000D02*
D03*
X207100D02*
D03*
D22*
X180100Y8300D02*
D03*
Y17800D02*
D03*
Y27300D02*
D03*
X154100Y8300D02*
D03*
Y17800D02*
D03*
Y27300D02*
D03*
D23*
X41450Y153510D02*
D03*
Y160010D02*
D03*
Y166510D02*
D03*
Y173010D02*
D03*
Y179510D02*
D03*
D24*
X210000Y46600D02*
D03*
X197300D02*
D03*
X184600D02*
D03*
X171900D02*
D03*
X146500D02*
D03*
X121100D02*
D03*
X95700D02*
D03*
X70300D02*
D03*
D25*
X61600Y80700D02*
D03*
Y93400D02*
D03*
Y106100D02*
D03*
Y118800D02*
D03*
Y131500D02*
D03*
D26*
X65600Y131500D02*
D03*
Y118800D02*
D03*
Y106100D02*
D03*
Y93400D02*
D03*
Y80700D02*
D03*
X70300Y50600D02*
D03*
X95700D02*
D03*
X121100D02*
D03*
X146500D02*
D03*
X171900D02*
D03*
X184600D02*
D03*
X197300D02*
D03*
X210000D02*
D03*
D27*
X51400Y205100D02*
D03*
Y270700D02*
D03*
X22900Y237900D02*
D03*
X16100Y215800D02*
D03*
X129900Y11000D02*
D03*
X117300Y14800D02*
D03*
X228500Y19100D02*
D03*
X210648Y14764D02*
D03*
D28*
X14450Y131510D02*
D03*
Y201510D02*
D03*
D29*
X41450Y141510D02*
D03*
Y191510D02*
D03*
D30*
X58100Y243400D02*
D03*
Y232400D02*
D03*
X47100Y243400D02*
D03*
Y232400D02*
D03*
M02*
